<?xml version="1.0" encoding="utf-8"?>
<!-- Generator: Adobe Illustrator 16.0.0, SVG Export Plug-In . SVG Version: 6.00 Build 0)  -->
<!DOCTYPE svg PUBLIC "-//W3C//DTD SVG 1.1//EN" "http://www.w3.org/Graphics/SVG/1.1/DTD/svg11.dtd">
<svg version="1.1" id="Capa_1" xmlns="http://www.w3.org/2000/svg" xmlns:xlink="http://www.w3.org/1999/xlink" x="0px" y="0px"
	 width="512px" height="512px" viewBox="0 0 512 512" enable-background="new 0 0 512 512" xml:space="preserve">
<g>
	<g id="group-23svg">
		<path id="path-1_14_" fill="#FFFFFF" stroke="#FFFFFF" stroke-width="19" stroke-miterlimit="10" d="M264.258,496.215
			c-125.652,0-227.877-102.217-227.877-227.861c0-125.652,102.225-227.869,227.877-227.869
			c125.637,0,227.861,102.217,227.861,227.869C492.127,393.998,389.902,496.215,264.258,496.215z M264.258,64.205
			c-112.575,0-204.157,91.574-204.157,204.149c0,112.566,91.583,204.143,204.157,204.143c112.567,0,204.142-91.576,204.142-204.143
			C468.407,155.779,376.832,64.205,264.258,64.205z"/>
		<path id="path-2_14_" fill="#FFFFFF" stroke="#FFFFFF" stroke-width="19" stroke-miterlimit="10" d="M265.626,275.109
			c-0.039,0-0.071,0-0.11,0c-5.188,0-9.726-5.193-11.236-10.143l-29.982-99.466l-68.496,21.671
			c-4.625,1.511-9.725-0.213-12.816-3.985c-3.091-3.771-3.566-9.156-1.186-13.409l33.88-60.707h-61.806
			c-4.278,0-8.231-2.309-10.334-6.041c-2.095-3.725-2.024-8.302,0.19-11.963C121.915,61.015,188.378,52.388,218.368,50
			l-1.502-31.286c-0.15-3.242,1.02-6.405,3.266-8.753c2.23-2.348,5.329-3.677,8.571-3.677h77.936c3.242,0,6.35,1.329,8.587,3.677
			c2.236,2.348,3.407,5.511,3.257,8.753L316.979,50c29.99,2.388,96.461,11.014,114.639,41.067c2.221,3.661,2.293,8.238,0.189,11.963
			c-2.096,3.731-6.048,6.041-10.334,6.041h-61.775l33.003,58.888c1.582,2.016,2.515,4.546,2.515,7.306
			c0,6.555-5.306,11.86-11.86,11.86c-0.055-0.008-0.11,0.008-0.149,0c-1.132,0-2.277-0.166-3.393-0.499l-70.954-21.173
			l-31.958,99.734C275.312,270.066,270.757,275.109,265.626,275.109z M232.125,137.78c1.89,0,3.788,0.451,5.496,1.352
			c2.822,1.471,4.926,4.009,5.859,7.053l22.534,74.125l23.878-73.2c2.001-6.12,8.539-9.52,14.659-7.693l53.986,16.113
			l-29.437-52.523c-2.056-3.669-2.017-8.16,0.111-11.789c2.126-3.637,6.023-5.867,10.23-5.867h40.315
			c-22.826-7.116-52.942-11.354-75.722-12.406c-3.147-0.15-6.104-1.542-8.223-3.866c-2.119-2.333-3.227-5.408-3.076-8.555
			l1.463-30.519h-53.054l1.456,30.519c0.158,3.147-0.957,6.223-3.068,8.555c-2.126,2.325-5.084,3.716-8.223,3.866
			c-22.779,1.052-52.903,5.29-75.73,12.406h40.316c4.206,0,8.096,2.23,10.23,5.858c2.127,3.629,2.175,8.121,0.127,11.789
			l-29.017,51.899l51.243-16.541C229.683,137.97,230.9,137.78,232.125,137.78z"/>
		<path id="path-3_14_" fill="#FFFFFF" stroke="#FFFFFF" stroke-width="19" stroke-miterlimit="10" d="M245.527,446.047
			c-0.774,0-1.557-0.078-2.348-0.236c-108.376-21.768-139.592-151.105-140.865-156.6c-1.479-6.381,2.491-12.738,8.855-14.225
			c6.389-1.51,12.754,2.484,14.248,8.848c0.277,1.195,29.144,119.984,122.426,138.715c6.428,1.289,10.587,7.543,9.298,13.963
			C256.011,442.15,251.07,446.047,245.527,446.047z"/>
	</g>
</g>
</svg>
